<svg width="19" height="19" viewBox="0 0 19 19" fill="none" xmlns="http://www.w3.org/2000/svg">
<path d="M9.16459 13.7475C9.37871 13.7475 9.55833 13.6751 9.70344 13.5302C9.84856 13.3854 9.92111 13.2059 9.92111 12.9918C9.92111 12.7777 9.84869 12.5981 9.70386 12.4529C9.559 12.3078 9.37952 12.2353 9.16541 12.2353C8.95129 12.2353 8.77167 12.3077 8.62656 12.4525C8.48144 12.5974 8.40889 12.7769 8.40889 12.991C8.40889 13.2051 8.48131 13.3847 8.62614 13.5298C8.771 13.6749 8.95048 13.7475 9.16459 13.7475ZM8.54636 10.2419H9.92111V4.44503H8.54636V10.2419ZM9.17109 18.33C7.90733 18.33 6.7197 18.0894 5.6082 17.6083C4.4967 17.1271 3.52471 16.4703 2.69222 15.6378C1.85973 14.8053 1.20291 13.8327 0.721744 12.7201C0.240581 11.6074 0 10.4186 0 9.15354C0 7.88848 0.240581 6.69964 0.721744 5.58701C1.20291 4.47436 1.85973 3.50561 2.69222 2.68076C3.52471 1.85591 4.49727 1.20291 5.60992 0.721744C6.72255 0.240581 7.9114 0 9.17646 0C10.4415 0 11.6304 0.240581 12.743 0.721744C13.8556 1.20291 14.8244 1.85591 15.6492 2.68076C16.4741 3.50561 17.1271 4.47558 17.6083 5.59065C18.0894 6.70573 18.33 7.89514 18.33 9.15891C18.33 10.4227 18.0894 11.6103 17.6083 12.7218C17.1271 13.8333 16.4741 14.8039 15.6492 15.6336C14.8244 16.4632 13.8544 17.1201 12.7394 17.604C11.6243 18.088 10.4349 18.33 9.17109 18.33ZM9.17646 16.9553C11.3379 16.9553 13.1747 16.1953 14.6869 14.6755C16.1991 13.1556 16.9553 11.315 16.9553 9.15354C16.9553 6.99213 16.2006 5.15531 14.6912 3.64309C13.1819 2.13086 11.3398 1.37475 9.165 1.37475C7.01123 1.37475 5.17441 2.12943 3.65454 3.63878C2.13468 5.14815 1.37475 6.99022 1.37475 9.165C1.37475 11.3188 2.13468 13.1556 3.65454 14.6755C5.17441 16.1953 7.01504 16.9553 9.17646 16.9553Z" fill="#E8EAEE"/>
</svg>
