<svg width="19" height="19" viewBox="0 0 19 19" fill="none" xmlns="http://www.w3.org/2000/svg">
<path d="M8.54636 13.7475H9.92111V8.2485H8.54636V13.7475ZM9.16459 6.55298C9.37871 6.55298 9.55833 6.48271 9.70344 6.34218C9.84856 6.20165 9.92111 6.02752 9.92111 5.81978C9.92111 5.59905 9.84869 5.41403 9.70386 5.26472C9.559 5.11541 9.37952 5.04075 9.16541 5.04075C8.95129 5.04075 8.77167 5.11541 8.62656 5.26472C8.48144 5.41403 8.40889 5.59905 8.40889 5.81978C8.40889 6.02752 8.48131 6.20165 8.62614 6.34218C8.771 6.48271 8.95048 6.55298 9.16459 6.55298ZM9.17109 18.33C7.90733 18.33 6.7197 18.0894 5.6082 17.6083C4.4967 17.1271 3.52471 16.4703 2.69222 15.6378C1.85973 14.8053 1.20291 13.8327 0.721744 12.7201C0.240581 11.6074 0 10.4186 0 9.15354C0 7.88848 0.240581 6.69964 0.721744 5.58701C1.20291 4.47436 1.85973 3.50561 2.69222 2.68076C3.52471 1.85591 4.49727 1.20291 5.60992 0.721744C6.72255 0.240581 7.9114 0 9.17646 0C10.4415 0 11.6304 0.240581 12.743 0.721744C13.8556 1.20291 14.8244 1.85591 15.6492 2.68076C16.4741 3.50561 17.1271 4.47558 17.6083 5.59065C18.0894 6.70573 18.33 7.89514 18.33 9.15891C18.33 10.4227 18.0894 11.6103 17.6083 12.7218C17.1271 13.8333 16.4741 14.8039 15.6492 15.6336C14.8244 16.4632 13.8544 17.1201 12.7394 17.604C11.6243 18.088 10.4349 18.33 9.17109 18.33ZM9.17646 16.9553C11.3379 16.9553 13.1747 16.1953 14.6869 14.6755C16.1991 13.1556 16.9553 11.315 16.9553 9.15354C16.9553 6.99213 16.2006 5.15531 14.6912 3.64309C13.1819 2.13086 11.3398 1.37475 9.165 1.37475C7.01123 1.37475 5.17441 2.12943 3.65454 3.63878C2.13468 5.14815 1.37475 6.99022 1.37475 9.165C1.37475 11.3188 2.13468 13.1556 3.65454 14.6755C5.17441 16.1953 7.01504 16.9553 9.17646 16.9553Z" fill="#E8EAEE"/>
</svg>
