<svg height="24" viewBox="0 0 24 24" width="24" xmlns="http://www.w3.org/2000/svg"><path d="m632-30a1 1 0 0 0 -1 1v3h-14v-18h3v1a1 1 0 0 0 1 1h6a1 1 0 0 0 1-1v-1h3a1 1 0 0 0 1 1 1 1 0 0 0 1-1 2 2 0 0 0 -2-2h-3.184a3 3 0 0 0 -2.816-2h-2a3 3 0 0 0 -2.816 2h-3.184a2 2 0 0 0 -2 2v18a2 2 0 0 0 2 2h14a2 2 0 0 0 2-2v-3a1 1 0 0 0 -1-1zm-10-15a1 1 0 0 1 1-1h2a1 1 0 0 1 1 1v1h-4zm3 8h-5a1 1 0 0 1 -1-1 1 1 0 0 1 1-1h5a1 1 0 0 1 1 1 1 1 0 0 1 -1 1zm-2 3a1 1 0 0 1 -1 1h-2a1 1 0 0 1 -1-1 1 1 0 0 1 1-1h2a1 1 0 0 1 1 1zm0 4a1 1 0 0 1 -1 1h-2a1 1 0 0 1 -1-1 1 1 0 0 1 1-1h2a1 1 0 0 1 1 1zm15.707-10.707-3-3a1 1 0 0 0 -1.414 0l-10 10a1 1 0 0 0 -.293.707v3a1 1 0 0 0 1 1h3a1 1 0 0 0 .707-.293l10-10a1 1 0 0 0 0-1.414zm-11.121 9.707h-1.586v-1.586l9-9 1.586 1.586z" transform="translate(-615 48)"/></svg>