<svg width="19" height="19" viewBox="0 0 19 19" fill="none" xmlns="http://www.w3.org/2000/svg">
<path d="M0 18.33L9.165 0L13.7475 9.165L18.33 18.33H0ZM2.16627 16.8829H16.1637L9.165 2.89421L2.16627 16.8829ZM9.25196 15.5081C9.43006 15.5081 9.57812 15.4384 9.69615 15.2989C9.81419 15.1594 9.8732 14.9866 9.8732 14.7804C9.8732 14.5742 9.81297 14.4027 9.69251 14.266C9.57203 14.1294 9.42275 14.061 9.24467 14.061C9.06658 14.061 8.91852 14.1308 8.80048 14.2703C8.68245 14.4098 8.62343 14.5826 8.62343 14.7888C8.62343 14.995 8.68366 15.1665 8.80413 15.3031C8.92461 15.4398 9.07388 15.5081 9.25196 15.5081ZM8.62343 12.831H9.8732V7.42847H8.62343V12.831Z" fill="#474745"/>
</svg>
